<svg width="114" height="67" viewBox="0 0 114 67" fill="none" xmlns="http://www.w3.org/2000/svg">
<path fill-rule="evenodd" clip-rule="evenodd" d="M90.7392 39.1579C90.6106 39.1834 90.4782 39.1834 90.3495 39.1579L80.4548 34.075C77.1591 34.7309 73.7833 34.8851 70.4415 34.5324C67.5929 34.2419 64.8265 33.408 62.2919 32.0757C61.4437 32.3382 60.5683 32.503 59.6827 32.567C58.245 32.6869 56.7999 32.6869 55.3622 32.567C54.5498 32.4758 53.7491 32.2998 52.9733 32.0418C52.6284 32.2234 52.2718 32.3818 51.9059 32.5162C48.4548 34.0622 44.708 34.837 40.9268 34.7866C38.7978 34.796 36.6737 34.5802 34.5901 34.1427L24.6446 39.2256C24.496 39.2952 24.3307 39.3211 24.168 39.3002C24.0053 39.2793 23.8519 39.2126 23.7257 39.1077C23.5995 39.0029 23.5058 38.8643 23.4555 38.7081C23.4052 38.552 23.4004 38.3848 23.4416 38.226L25.7967 30.1611L25.4748 29.907C23.5082 28.5273 21.9006 26.6969 20.7863 24.5686C19.6721 22.4404 19.0837 20.0763 19.0703 17.6741C19.0992 15.2801 19.6965 12.9272 20.8129 10.8092C21.9293 8.69127 23.533 6.86885 25.4917 5.4921C29.8993 2.06806 35.3464 0.256345 40.9268 0.358364C45.1739 0.284426 49.3706 1.28697 53.1258 3.27256C53.837 3.00871 54.5759 2.82681 55.3283 2.73039C56.7671 2.5536 58.2195 2.51389 59.6658 2.61178C60.5289 2.72403 61.3836 2.89384 62.2242 3.12007C65.8886 1.23367 69.9634 0.284819 74.0843 0.358364C79.6594 0.230783 85.1149 1.98561 89.5702 5.33961C91.5311 6.7155 93.1372 8.53732 94.2566 10.6552C95.3759 12.773 95.9763 15.1264 96.0085 17.5216C95.9898 19.9289 95.3957 22.2968 94.2757 24.4277C93.1557 26.5587 91.5423 28.3909 89.5702 29.7714L89.2991 29.9917L91.5695 38.0904C91.6122 38.2494 91.6078 38.4174 91.5566 38.5738C91.5055 38.7303 91.4098 38.8685 91.2814 38.9715C91.1272 39.0935 90.9359 39.1592 90.7392 39.1579ZM80.5734 32.3806C80.7029 32.376 80.8314 32.4052 80.9462 32.4654L89.4177 36.735L87.5031 29.9578C87.4557 29.7745 87.4699 29.5807 87.5433 29.4063C87.6168 29.2318 87.7455 29.0863 87.9098 28.992C88.1235 28.8664 88.3274 28.7248 88.5197 28.5685C90.2954 27.3494 91.7499 25.7188 92.7589 23.8159C93.7679 21.9129 94.3015 19.7941 94.3142 17.6402C94.2898 15.5022 93.7523 13.4014 92.7469 11.5144C91.7415 9.62737 90.2976 8.00944 88.5367 6.79671C84.3861 3.62977 79.2873 1.95803 74.0673 2.05266C70.7403 2.00679 67.44 2.653 64.3759 3.95028C65.9345 4.70908 67.3593 5.71621 68.5947 6.93225C70.0142 8.29328 71.1403 9.9303 71.9037 11.7426C72.6671 13.555 73.0517 15.5043 73.0338 17.4708C73.0668 19.4721 72.69 21.4589 71.9266 23.3092C71.1632 25.1594 70.0293 26.8339 68.5947 28.2296C67.3909 29.4256 66.0074 30.426 64.4945 31.1946C66.4633 32.0717 68.5544 32.643 70.6957 32.8889C73.9574 33.2047 77.2482 33.0219 80.4548 32.3468L80.5734 32.3806ZM40.9268 2.05266C35.7402 1.91391 30.661 3.54524 26.5252 6.67811C24.7664 7.8917 23.325 9.51023 22.3225 11.3973C21.32 13.2844 20.7857 15.3849 20.7646 17.5216C20.772 19.6704 21.2999 21.7855 22.3031 23.6857C23.3063 25.5859 24.755 27.2148 26.5252 28.4329C26.7283 28.5992 26.9501 28.7414 27.186 28.8565C27.3625 28.9472 27.5016 29.0969 27.579 29.2796C27.6564 29.4622 27.6672 29.6663 27.6096 29.8561L25.6273 36.6333L34.0988 32.3637C34.2849 32.2964 34.4887 32.2964 34.6748 32.3637C36.7274 32.8182 38.8246 33.0399 40.9268 33.0245C44.3483 33.0708 47.7417 32.4014 50.8893 31.0591C49.5364 30.3095 48.3076 29.355 47.2465 28.2296C45.8217 26.8318 44.6964 25.1585 43.9391 23.3118C43.1817 21.465 42.8082 19.4835 42.8414 17.4877C42.8243 15.5229 43.2076 13.5752 43.9678 11.7634C44.7281 9.95152 45.8495 8.3135 47.2635 6.94919C48.3944 5.83286 49.6848 4.89071 51.0926 4.1536C47.8983 2.71875 44.4282 2.0016 40.9268 2.05266ZM53.1766 30.2289C53.9365 30.5405 54.734 30.7513 55.5486 30.8558C56.8848 30.9672 58.2279 30.9672 59.5641 30.8558C60.431 30.7954 61.2858 30.6188 62.1056 30.3305C64.0755 29.6033 65.8583 28.4456 67.324 26.9419C68.6044 25.7075 69.6148 24.221 70.2914 22.5762C70.9679 20.9314 71.296 19.1641 71.2548 17.3861C71.2788 15.6431 70.9419 13.9139 70.2655 12.3073C69.589 10.7007 68.5876 9.2514 67.324 8.05049C65.8454 6.56639 64.0496 5.43678 62.0717 4.7466C61.2351 4.50011 60.3793 4.32441 59.5133 4.22137C58.1911 4.12534 56.8626 4.16508 55.5486 4.33997C54.7878 4.44984 54.0463 4.6666 53.346 4.98381C51.5085 5.65646 49.8422 6.72679 48.4664 8.11826C47.2008 9.32112 46.1981 10.7732 45.5215 12.3829C44.845 13.9925 44.5093 15.7249 44.5357 17.4708C44.4962 19.2511 44.825 21.0204 45.5014 22.6677C46.1778 24.315 47.1872 25.8047 48.4664 27.0436C49.7694 28.4549 51.3816 29.5451 53.1766 30.2289ZM56.3449 23.2823C56.1401 23.2843 55.9415 23.2121 55.7858 23.0789L51.4992 19.4192C51.4147 19.3469 51.3452 19.2587 51.2948 19.1595C51.2443 19.0604 51.2139 18.9522 51.2053 18.8413C51.1966 18.7304 51.2099 18.6189 51.2443 18.5131C51.2788 18.4073 51.3337 18.3093 51.406 18.2248C51.4784 18.1402 51.5666 18.0707 51.6658 18.0203C51.7649 17.9699 51.8731 17.9394 51.984 17.9308C52.0949 17.9221 52.2064 17.9354 52.3122 17.9699C52.418 18.0043 52.516 18.0593 52.6005 18.1316L56.2094 21.2152L62.3258 13.2351C62.3926 13.1461 62.4762 13.0711 62.5719 13.0144C62.6676 12.9577 62.7736 12.9204 62.8837 12.9047C62.9939 12.889 63.106 12.8951 63.2138 12.9227C63.3215 12.9503 63.4228 12.9989 63.5118 13.0656C63.6879 13.2031 63.8039 13.4034 63.8355 13.6245C63.867 13.8456 63.8118 14.0704 63.6813 14.2516L57.0057 22.9603C56.9391 23.0529 56.853 23.1297 56.7534 23.1853C56.6539 23.2409 56.5434 23.274 56.4296 23.2823H56.3449Z" fill="#3C3C3C"/>
<path fill-rule="evenodd" clip-rule="evenodd" d="M42.6208 66.9443C42.3365 66.9455 42.0622 66.8399 41.852 66.6486C41.6418 66.4572 41.5111 66.1939 41.4856 65.9108C41.3331 64.2165 39.9946 62.5222 37.5209 61.0821C34.4172 59.1893 31.0226 57.8211 27.4737 57.0327C27.1847 56.9505 26.9369 56.7631 26.7791 56.5075C26.0904 55.3954 25.7256 54.1134 25.7256 52.8054C25.7256 51.4974 26.0904 50.2154 26.7791 49.1034C26.8446 48.9872 26.9307 48.8838 27.0332 48.7984C30.7253 45.93 33.156 41.7371 33.8104 37.1077C33.8464 36.8111 33.9987 36.541 34.2338 36.3567C34.4689 36.1724 34.7676 36.0891 35.0642 36.125C35.3608 36.161 35.6309 36.3133 35.8152 36.5484C35.9995 36.7835 36.0828 37.0822 36.0469 37.3788C35.3567 42.4992 32.7239 47.1581 28.6936 50.391C28.2882 51.0811 28.0646 51.8629 28.0439 52.663C28.0231 53.4632 28.2059 54.2555 28.575 54.9656C32.1662 55.8146 35.5983 57.2332 38.7408 59.1675C41.8245 61.0312 43.5357 63.2338 43.8237 65.7075C43.8477 66.0052 43.755 66.3006 43.5654 66.5314C43.3757 66.7621 43.1039 66.9102 42.8072 66.9443H42.6208ZM72.2033 66.9443C71.905 66.9226 71.6274 66.7841 71.4307 66.5588C71.234 66.3336 71.1342 66.0398 71.1528 65.7414C71.3222 63.2508 72.9827 61.0312 76.1002 59.1506C79.2857 57.2331 82.7493 55.8213 86.3676 54.9656C86.7222 54.2506 86.8953 53.4592 86.8717 52.6614C86.848 51.8636 86.6284 51.0839 86.2321 50.391C82.1547 47.1811 79.4772 42.5183 78.7602 37.3788C78.7243 37.0822 78.8076 36.7835 78.9919 36.5484C79.1762 36.3133 79.4463 36.161 79.7429 36.125C80.0395 36.0891 80.3382 36.1724 80.5733 36.3567C80.8085 36.541 80.9607 36.8111 80.9967 37.1077C81.6511 41.7371 84.0818 45.93 87.7739 48.7984C87.8767 48.8901 87.9627 48.9991 88.028 49.1203C88.7009 50.2318 89.0565 51.5062 89.0565 52.8054C89.0565 54.1046 88.7009 55.3791 88.028 56.4905C87.8761 56.7549 87.6268 56.9495 87.3334 57.0327C83.7505 57.8232 80.3181 59.1848 77.1676 61.0651C74.6939 62.5561 73.3893 64.1826 73.2707 65.8939C73.2506 66.1687 73.1312 66.4268 72.9348 66.6201C72.7384 66.8134 72.4784 66.9286 72.2033 66.9443ZM112.866 66.7241C112.598 66.7237 112.338 66.6282 112.134 66.4545C111.929 66.2808 111.792 66.0401 111.748 65.7753C111.087 61.9462 107.004 58.9981 99.6001 57.3038C99.3551 57.2341 99.1367 57.0925 98.9732 56.8971C98.0628 55.8323 97.5625 54.4774 97.5625 53.0765C97.5625 51.6756 98.0628 50.3207 98.9732 49.2559L99.1596 49.0695C103.07 45.9875 105.638 41.5135 106.326 36.5825C106.852 31.669 105.835 27.9077 103.226 25.129C102.179 23.9291 100.902 22.9521 99.4698 22.2564C98.0377 21.5607 96.4801 21.1605 94.89 21.0796C94.7312 21.0851 94.5731 21.0572 94.4259 20.9977C94.2786 20.9382 94.1454 20.8485 94.035 20.7344C93.9246 20.6202 93.8394 20.4842 93.7848 20.335C93.7303 20.1859 93.7076 20.0269 93.7183 19.8685C93.7291 19.71 93.7729 19.5556 93.8471 19.4151C93.9212 19.2747 94.024 19.1514 94.1488 19.0531C94.2736 18.9549 94.4176 18.8839 94.5715 18.8449C94.7255 18.8058 94.8859 18.7994 95.0424 18.8262C96.9165 18.9297 98.7514 19.4038 100.441 20.221C102.131 21.0382 103.642 22.1824 104.886 23.5872C107.919 26.8403 109.173 31.2963 108.563 36.8366C107.827 42.3017 105.011 47.2722 100.701 50.7129C100.156 51.3294 99.8429 52.1165 99.815 52.939C99.7872 53.7614 100.047 54.5679 100.549 55.2198C108.648 57.2868 113.155 60.7263 113.985 65.3856C114.034 65.6821 113.963 65.986 113.788 66.2305C113.614 66.4751 113.349 66.6404 113.053 66.6902L112.866 66.7241ZM2.00839 66.7241H1.77119C1.62291 66.7014 1.4806 66.6496 1.35248 66.5716C1.22436 66.4936 1.11296 66.3909 1.02474 66.2696C0.936511 66.1483 0.873202 66.0107 0.838469 65.8648C0.803736 65.7189 0.798267 65.5675 0.822379 65.4195C1.55093 60.6924 6.09165 57.236 14.3768 55.2537C14.864 54.5956 15.1141 53.792 15.0864 52.9737C15.0587 52.1553 14.7549 51.3705 14.2243 50.7468C9.93561 47.3129 7.14257 42.3522 6.43052 36.9044C5.71891 31.3471 6.92186 26.8741 10.0055 23.6041C12.3895 20.8679 15.756 19.1817 19.375 18.9109C19.6735 18.8875 19.9693 18.9829 20.1977 19.1765C20.4262 19.3701 20.569 19.6461 20.5949 19.9444C20.6088 20.0927 20.5929 20.2423 20.5483 20.3844C20.5036 20.5265 20.431 20.6582 20.3347 20.7718C20.2385 20.8854 20.1204 20.9787 19.9876 21.0461C19.8548 21.1135 19.7099 21.1537 19.5613 21.1643C18.0465 21.2689 16.5678 21.6749 15.212 22.3586C13.8561 23.0424 12.6505 23.99 11.6659 25.146C9.00585 27.9415 8.0401 31.686 8.66699 36.6164C9.32052 41.5472 11.8739 46.0278 15.7831 49.1034C15.8541 49.1624 15.9168 49.2308 15.9694 49.3067C16.8645 50.372 17.3552 51.7189 17.3552 53.1104C17.3552 54.5018 16.8645 55.8487 15.9694 56.9141C15.8151 57.1305 15.5855 57.2816 15.3256 57.3377C7.83678 59.1675 3.73658 62.0309 3.14357 65.8092C3.08738 66.078 2.937 66.3179 2.71954 66.4857C2.50208 66.6534 2.23185 66.738 1.95756 66.7241H2.00839Z" fill="#3C3C3C"/>
</svg>
