<svg width="31" height="26" viewBox="0 0 31 26" fill="none" xmlns="http://www.w3.org/2000/svg">
<path d="M29.695 1.00001L29.695 10.8948L14.683 10.8948C12.891 10.8948 11.1725 10.183 9.90534 8.91587C8.63823 7.64876 6.91966 6.93691 5.1277 6.93691L1 6.93691L1 4.95794L5.1277 4.95794C6.91966 4.95794 8.63823 4.24609 9.90534 2.97898C11.1724 1.71187 12.891 1.00001 14.683 1.00001L29.695 1.00001Z" stroke="#252525"/>
<path d="M29.695 8.04365L29.695 17.9385L14.683 17.9385C12.891 17.9385 11.1725 17.2266 9.90534 15.9595C8.63823 14.6924 6.91966 13.9805 5.1277 13.9805L1 13.9805L1 12.0016L5.1277 12.0016C6.91966 12.0016 8.63823 11.2897 9.90534 10.0226C11.1724 8.75551 12.891 8.04365 14.683 8.04365L29.695 8.04365Z" stroke="#252525"/>
<path d="M29.6955 15.3479L29.6955 25.2427L14.6835 25.2427C12.8915 25.2427 11.1729 24.5308 9.90583 23.2637C8.63872 21.9966 6.92015 21.2847 5.12819 21.2847L1.00049 21.2847L1.00049 19.3058L5.12819 19.3058C6.92015 19.3058 8.63872 18.5939 9.90583 17.3268C11.1729 16.0597 12.8915 15.3479 14.6835 15.3479L29.6955 15.3479Z" stroke="#252525"/>
</svg>
