<svg width="60" height="60" viewBox="0 0 60 60" fill="none" xmlns="http://www.w3.org/2000/svg">
<path fill-rule="evenodd" clip-rule="evenodd" d="M26.393 25.185V20.0293C25.553 19.1071 24.9066 18.0258 24.4921 16.8493C24.0777 15.6728 23.9035 14.425 23.98 13.18C23.98 8.08424 28.776 0.830285 28.9858 0.515547C29.1035 0.363136 29.2545 0.23973 29.4272 0.15482C29.6 0.0699097 29.79 0.0257568 29.9825 0.0257568C30.175 0.0257568 30.365 0.0699097 30.5378 0.15482C30.7105 0.23973 30.8616 0.363136 30.9792 0.515547C31.189 0.830285 35.97 8.08424 35.97 13.18C36.0485 14.424 35.8767 15.6711 35.4649 16.8476C35.053 18.024 34.4093 19.1059 33.572 20.0293V25.185H31.174V19.5047C31.1728 19.3236 31.2126 19.1445 31.2905 18.981C31.3683 18.8175 31.4822 18.6737 31.6236 18.5605C32.321 17.863 32.8568 17.0211 33.1935 16.094C33.5301 15.167 33.6593 14.1774 33.572 13.195C33.572 10.1975 31.3239 5.80614 29.975 3.49806C28.6261 5.80614 26.378 10.1225 26.378 13.195C26.2907 14.1774 26.4199 15.167 26.7566 16.094C27.0932 17.0211 27.6291 17.863 28.3264 18.5605C28.4678 18.6737 28.5817 18.8175 28.6596 18.981C28.7374 19.1445 28.7773 19.3236 28.776 19.5047V25.2L26.393 25.185ZM58.751 44.384C59.069 44.384 59.374 44.2577 59.5988 44.0328C59.8237 43.8079 59.95 43.503 59.95 43.185V33.593C59.95 32.003 59.3184 30.4781 58.1941 29.3539C57.0698 28.2296 55.545 27.598 53.955 27.598H5.995C4.40503 27.598 2.88018 28.2296 1.7559 29.3539C0.631615 30.4781 0 32.003 0 33.593L0 43.185C0 43.503 0.126323 43.8079 0.351179 44.0328C0.576035 44.2577 0.881006 44.384 1.199 44.384C1.60322 44.3822 2.00577 44.3319 2.398 44.2341V57.573H1.199C0.881006 57.573 0.576035 57.6993 0.351179 57.9242C0.126323 58.149 0 58.454 0 58.772C0 59.09 0.126323 59.395 0.351179 59.6198C0.576035 59.8447 0.881006 59.971 1.199 59.971H58.781C59.099 59.971 59.404 59.8447 59.6288 59.6198C59.8537 59.395 59.98 59.09 59.98 58.772C59.98 58.454 59.8537 58.149 59.6288 57.9242C59.404 57.6993 59.099 57.573 58.781 57.573H57.582V44.2191C57.9742 44.3169 58.3768 44.3672 58.781 44.369L58.751 44.384ZM55.154 57.588H4.796V42.9002C5.31264 42.3981 5.78407 41.8514 6.20483 41.2666C7.04413 40.1275 7.49375 39.573 8.393 39.573C9.29225 39.573 9.68193 40.0376 10.6112 41.2816C11.1087 42.1808 11.829 42.9371 12.703 43.4777C13.5769 44.0184 14.5752 44.3253 15.602 44.369C16.6278 44.314 17.6232 44.0008 18.4956 43.4584C19.3681 42.916 20.0895 42.1621 20.5928 41.2666C21.4471 40.1275 21.8967 39.573 22.796 39.573C23.6952 39.573 24.0849 40.0376 24.9992 41.2816C25.5041 42.1714 26.2242 42.9202 27.0935 43.4596C27.9628 43.999 28.9536 44.3117 29.975 44.369C31.0031 44.3151 32.0009 44.0024 32.876 43.4601C33.7511 42.9178 34.4751 42.1633 34.9808 41.2666C35.8201 40.1275 36.2848 39.573 37.169 39.573C38.0533 39.573 38.4579 40.0376 39.3872 41.2816C39.8913 42.1752 40.6132 42.9269 41.4858 43.4667C42.3584 44.0065 43.3533 44.3169 44.378 44.369C45.4194 44.3289 46.4331 44.0228 47.3225 43.4797C48.212 42.9366 48.9474 42.1746 49.4588 41.2666C50.3131 40.1275 50.7627 39.573 51.6619 39.573C52.5612 39.573 52.9509 40.0376 53.8801 41.2816C54.2903 41.8613 54.7518 42.4031 55.2589 42.9002L55.154 57.588ZM55.6786 39.8578C55.2797 39.0956 54.6907 38.4494 53.9685 37.982C53.2464 37.5146 52.4157 37.2418 51.557 37.19C50.7002 37.2417 49.8711 37.5129 49.1493 37.9774C48.4276 38.442 47.8374 39.0843 47.4355 39.8428C46.4613 41.1617 45.7569 41.986 44.393 41.986C43.0291 41.986 42.3247 41.1767 41.3206 39.8578C40.9181 39.0954 40.3261 38.4494 39.6016 37.9822C38.8771 37.5149 38.0445 37.2421 37.184 37.19C36.3294 37.2428 35.5028 37.5145 34.7836 37.9791C34.0645 38.4437 33.4769 39.0855 33.0774 39.8428C32.0583 41.1617 31.3539 41.986 29.975 41.986C28.5962 41.986 27.9067 41.1767 26.9026 39.8578C26.5037 39.0956 25.9147 38.4494 25.1925 37.982C24.4704 37.5146 23.6397 37.2418 22.781 37.19C21.9242 37.2417 21.0951 37.5129 20.3733 37.9774C19.6516 38.442 19.0614 39.0843 18.6594 39.8428C17.6553 41.1767 16.9509 41.986 15.587 41.986C14.2231 41.986 13.4888 41.1617 12.5296 39.8428C12.1271 39.0804 11.5351 38.4344 10.8106 37.9672C10.0861 37.4999 9.25353 37.2271 8.393 37.175C7.53694 37.2295 6.709 37.5018 5.98769 37.9661C5.26638 38.4304 4.67563 39.0712 4.27144 39.8278C3.79449 40.5842 3.15438 41.2243 2.398 41.7012V33.578C2.40588 32.6278 2.78785 31.719 3.46114 31.0485C4.13443 30.3781 5.04481 29.9999 5.995 29.996H53.955C54.9078 29.9999 55.8204 30.3802 56.4941 31.0539C57.1678 31.7276 57.5481 32.6402 57.552 33.593V41.7162C56.8046 41.2381 56.1745 40.5978 55.7086 39.8428L55.6786 39.8578Z" fill="#3C3C3C"/>
</svg>
