<svg width="34" height="29" viewBox="0 0 34 29" fill="none" xmlns="http://www.w3.org/2000/svg">
<path d="M9.52002 4.08V0" stroke="#252525"/>
<path d="M24.48 4.08V0" stroke="#252525"/>
<rect x="0.5" y="1.85999" width="33" height="26.2" stroke="#252525"/>
<path d="M1.35938 6.79999H33.9994" stroke="#252525"/>
<circle cx="6.12008" cy="11.56" r="1.54" stroke="#252525"/>
<circle cx="6.12008" cy="17" r="1.54" stroke="#252525"/>
<circle cx="6.12008" cy="22.44" r="1.54" stroke="#252525"/>
<circle cx="11.56" cy="11.56" r="1.54" stroke="#252525"/>
<circle cx="11.56" cy="17" r="1.54" stroke="#252525"/>
<circle cx="11.56" cy="22.44" r="1.54" stroke="#252525"/>
<circle cx="17" cy="11.56" r="1.54" stroke="#252525"/>
<circle cx="17" cy="17" r="1.54" stroke="#252525"/>
<circle cx="17" cy="22.44" r="1.54" stroke="#252525"/>
<circle cx="22.4404" cy="11.56" r="1.54" stroke="#252525"/>
<circle cx="22.4404" cy="17" r="1.54" stroke="#252525"/>
<circle cx="22.4404" cy="22.44" r="1.54" stroke="#252525"/>
<circle cx="27.8798" cy="11.56" r="1.54" stroke="#252525"/>
<circle cx="27.8798" cy="17" r="1.54" stroke="#252525"/>
<circle cx="27.8798" cy="22.44" r="1.54" stroke="#252525"/>
</svg>
