<svg width="28" height="32" viewBox="0 0 28 32" fill="none" xmlns="http://www.w3.org/2000/svg">
<circle cx="5.69568" cy="15.2826" r="2.91044" transform="rotate(-45 5.69568 15.2826)" stroke="#252525" stroke-width="0.819825"/>
<circle cx="15.4779" cy="25.0654" r="2.91044" transform="rotate(-45 15.4779 25.0654)" stroke="#252525" stroke-width="0.819825"/>
<circle cx="11.5658" cy="9.41309" r="2.91044" transform="rotate(-45 11.5658 9.41309)" stroke="#252525" stroke-width="0.819825"/>
<circle cx="21.348" cy="19.1957" r="2.91044" transform="rotate(-45 21.348 19.1957)" stroke="#252525" stroke-width="0.819825"/>
<circle cx="13.5223" cy="17.2393" r="2.91044" transform="rotate(-45 13.5223 17.2393)" stroke="#252525" stroke-width="0.819825"/>
<circle cx="23.3046" cy="27.022" r="2.91044" transform="rotate(-45 23.3046 27.022)" stroke="#252525" stroke-width="0.819825"/>
<circle cx="19.392" cy="11.3696" r="2.91044" transform="rotate(-45 19.392 11.3696)" stroke="#252525" stroke-width="0.819825"/>
<circle cx="7.65223" cy="23.1089" r="2.91044" transform="rotate(-45 7.65223 23.1089)" stroke="#252525" stroke-width="0.819825"/>
<path d="M6.32752 9.95526L5.89144 9.51918C3.53892 7.16667 3.53892 3.3525 5.89144 0.999982V0.999982" stroke="#252525"/>
</svg>
