<svg width="80" height="70" viewBox="0 0 80 70" fill="none" xmlns="http://www.w3.org/2000/svg">
<path fill-rule="evenodd" clip-rule="evenodd" d="M61.7801 48.767C61.4612 48.767 61.1553 48.6403 60.9298 48.4148C60.7043 48.1893 60.5776 47.8834 60.5776 47.5645C60.5776 47.2456 60.7043 46.9397 60.9298 46.7142C61.1553 46.4887 61.4612 46.362 61.7801 46.362C65.889 46.362 69.8296 44.7298 72.7351 41.8243C75.6405 38.9189 77.2728 34.9783 77.2728 30.8693C77.2728 26.7604 75.6405 22.8198 72.7351 19.9144C69.8296 17.0089 65.889 15.3767 61.7801 15.3767C61.0034 15.3894 60.2287 15.4593 59.4623 15.5858C59.2105 15.6174 58.955 15.5709 58.7306 15.4524C58.5061 15.3339 58.3235 15.1493 58.2075 14.9236C56.2497 10.8837 53.0915 7.5474 49.165 5.37106C45.2385 3.19472 40.7355 2.28464 36.272 2.76532C31.8085 3.246 27.6026 5.09397 24.2295 8.05642C20.8564 11.0189 18.481 14.9511 17.4282 19.3152C17.351 19.5764 17.193 19.8065 16.977 19.9724C16.761 20.1383 16.498 20.2316 16.2257 20.2388H15.8946C14.1782 20.2262 12.4761 20.5518 10.8855 21.1971C9.29491 21.8423 7.84699 22.7945 6.6244 23.9993C5.40181 25.204 4.42849 26.6378 3.76002 28.2188C3.09154 29.7997 2.741 31.4969 2.72842 33.2133C2.71583 34.9297 3.04144 36.6318 3.68666 38.2224C4.33187 39.813 5.28406 41.2609 6.48885 42.4835C7.69364 43.7061 9.12744 44.6794 10.7084 45.3479C12.2893 46.0163 13.9865 46.3669 15.7029 46.3794C16.0218 46.3794 16.3276 46.5061 16.5532 46.7316C16.7787 46.9571 16.9053 47.263 16.9053 47.5819C16.9053 47.9008 16.7787 48.2067 16.5532 48.4322C16.3276 48.6577 16.0218 48.7844 15.7029 48.7844C13.6649 48.8084 11.6422 48.4308 9.75016 47.6731C7.85813 46.9154 6.13387 45.7925 4.67583 44.3684C1.73117 41.4924 0.0496107 37.5644 0.00108019 33.4486C-0.0474503 29.3327 1.54102 25.3662 4.41705 22.4215C7.29307 19.4768 11.2211 17.7953 15.3369 17.7468C16.6721 13.1262 19.3544 9.0086 23.0412 5.91995C26.728 2.8313 31.2519 0.91184 36.0349 0.406791C40.8179 -0.0982579 45.6429 0.834031 49.8934 3.08456C54.144 5.33508 57.6272 8.80166 59.898 13.0414C60.522 12.9602 61.1507 12.9194 61.7801 12.9195C66.5268 12.9195 71.0791 14.8051 74.4356 18.1615C77.7921 21.518 79.6777 26.0703 79.6777 30.8171C79.6777 35.5638 77.7921 40.1161 74.4356 43.4726C71.0791 46.829 66.5268 48.7147 61.7801 48.7147V48.767Z" fill="#3C3C3C"/>
<path fill-rule="evenodd" clip-rule="evenodd" d="M61.7804 48.7669C61.4614 48.7669 61.1556 48.6402 60.9301 48.4147C60.7046 48.1892 60.5779 47.8833 60.5779 47.5644C60.5779 47.2455 60.7046 46.9396 60.9301 46.7141C61.1556 46.4886 61.4614 46.3619 61.7804 46.3619C64.3734 46.3627 66.9251 45.7127 69.2017 44.4714C71.4783 43.2301 73.4069 41.4372 74.8107 39.2571C76.2146 37.077 77.0488 34.5794 77.2369 31.9933C77.4251 29.4071 76.9611 26.8151 75.8875 24.4548C74.8139 22.0944 73.165 20.0414 71.0921 18.4836C69.0191 16.9259 66.5883 15.9135 64.0225 15.539C61.4566 15.1645 58.8379 15.4401 56.4062 16.3403C53.9745 17.2406 51.8076 18.7368 50.1042 20.6919C49.8804 20.8553 49.6071 20.9365 49.3303 20.9216C49.0536 20.9068 48.7905 20.7968 48.5855 20.6103C48.3806 20.4237 48.2463 20.1722 48.2055 19.898C48.1647 19.6239 48.2198 19.3441 48.3615 19.106C50.3262 16.8413 52.8284 15.1064 55.6384 14.0607C58.4483 13.015 61.4759 12.692 64.4432 13.1212C67.4105 13.5505 70.2224 14.7183 72.6208 16.5175C75.0192 18.3167 76.9271 20.6896 78.1695 23.4183C79.4118 26.1469 79.9488 29.144 79.731 32.1343C79.5133 35.1246 78.5478 38.0122 76.9232 40.5322C75.2987 43.0521 73.0671 45.1235 70.4334 46.5562C67.7997 47.989 64.8483 48.7372 61.8501 48.732L61.7804 48.7669Z" fill="#3C3C3C"/>
<path fill-rule="evenodd" clip-rule="evenodd" d="M24.6085 55.6332C24.4878 55.6581 24.3633 55.6581 24.2426 55.6332C24.0905 55.5897 23.9488 55.5157 23.8262 55.4158C23.7036 55.3159 23.6025 55.1921 23.5292 55.052C23.4558 54.9118 23.4117 54.7582 23.3996 54.6005C23.3874 54.4428 23.4074 54.2842 23.4583 54.1345L25.6716 47.2682C25.7096 47.1067 25.7806 46.9548 25.8802 46.8221C25.9797 46.6893 26.1057 46.5787 26.2501 46.497C26.3945 46.4153 26.5543 46.3644 26.7194 46.3475C26.8844 46.3305 27.0512 46.3479 27.2092 46.3986C27.3672 46.4493 27.513 46.5321 27.6374 46.6418C27.7619 46.7516 27.8623 46.8859 27.9323 47.0363C28.0023 47.1867 28.0404 47.35 28.0442 47.5159C28.0481 47.6818 28.0175 47.8466 27.9545 48.0001L25.6542 54.7967C25.5845 55.0253 25.4474 55.2275 25.2608 55.3768C25.0742 55.5261 24.8468 55.6155 24.6085 55.6332ZM20.1821 69.3657C20.0613 69.3906 19.9368 69.3906 19.8161 69.3657C19.6669 69.3183 19.5286 69.2418 19.4092 69.1406C19.2898 69.0394 19.1916 68.9155 19.1203 68.7762C19.049 68.6369 19.006 68.4848 18.9938 68.3287C18.9816 68.1727 19.0005 68.0157 19.0493 67.867L21.1231 60.931C21.1712 60.78 21.2485 60.6399 21.3507 60.5187C21.4529 60.3976 21.578 60.2977 21.7188 60.2249C21.8596 60.1521 22.0133 60.1077 22.1713 60.0943C22.3292 60.0809 22.4882 60.0988 22.6393 60.1468C22.7903 60.1949 22.9304 60.2722 23.0516 60.3744C23.1727 60.4766 23.2726 60.6017 23.3454 60.7425C23.4182 60.8833 23.4626 61.037 23.476 61.195C23.4894 61.3529 23.4715 61.5119 23.4235 61.663L21.2102 68.5292C21.1321 68.7659 20.9833 68.973 20.7839 69.1225C20.5844 69.2721 20.344 69.357 20.0949 69.3657H20.1821Z" fill="#3C3C3C"/>
<path fill-rule="evenodd" clip-rule="evenodd" d="M48.5531 55.6331C48.4324 55.658 48.3079 55.658 48.1872 55.6331C47.8854 55.537 47.6338 55.3256 47.487 55.045C47.3401 54.7644 47.3099 54.4372 47.4029 54.1344L49.6162 47.2682C49.7161 46.9651 49.9308 46.7133 50.2142 46.5667C50.4977 46.4201 50.8273 46.3904 51.1323 46.4839C51.4349 46.5835 51.6856 46.7991 51.8293 47.0834C51.9731 47.3677 51.9982 47.6973 51.8991 48.0001L49.7033 54.7966C49.6209 55.0374 49.4662 55.247 49.2604 55.3967C49.0546 55.5464 48.8076 55.6289 48.5531 55.6331ZM44.1441 69.3657C44.0234 69.3906 43.8988 69.3906 43.7781 69.3657C43.626 69.3222 43.4844 69.2482 43.3617 69.1483C43.2391 69.0484 43.138 68.9246 43.0647 68.7844C42.9914 68.6443 42.9473 68.4907 42.9351 68.333C42.9229 68.1753 42.9429 68.0167 42.9939 67.867L45.2071 61.0007C45.2451 60.8392 45.3162 60.6873 45.4157 60.5546C45.5153 60.4218 45.6412 60.3112 45.7857 60.2295C45.9301 60.1478 46.0899 60.0969 46.2549 60.08C46.42 60.063 46.5867 60.0804 46.7447 60.1311C46.9027 60.1817 47.0485 60.2646 47.173 60.3743C47.2974 60.484 47.3978 60.6184 47.4678 60.7688C47.5378 60.9192 47.5759 61.0825 47.5798 61.2484C47.5836 61.4143 47.5531 61.5791 47.4901 61.7326L45.2768 68.5989C45.1904 68.8281 45.0351 69.0249 44.8323 69.1622C44.6294 69.2995 44.389 69.3706 44.1441 69.3657Z" fill="#3C3C3C"/>
<path fill-rule="evenodd" clip-rule="evenodd" d="M36.5283 55.6332C36.4075 55.6581 36.283 55.6581 36.1623 55.6332C36.0131 55.5857 35.8748 55.5092 35.7554 55.408C35.636 55.3068 35.5378 55.183 35.4665 55.0437C35.3952 54.9043 35.3522 54.7522 35.34 54.5962C35.3279 54.4401 35.3467 54.2832 35.3955 54.1345L37.5913 47.2682C37.6884 46.9631 37.9026 46.7091 38.187 46.5621C38.4713 46.415 38.8024 46.3869 39.1075 46.484C39.4125 46.581 39.6665 46.7953 39.8136 47.0796C39.9607 47.364 39.9887 47.6951 39.8917 48.0001L37.6784 54.7967C37.6006 55.0403 37.4471 55.2528 37.2403 55.4032C37.0334 55.5536 36.784 55.6342 36.5283 55.6332ZM32.1192 69.3657C31.9985 69.3906 31.874 69.3906 31.7532 69.3657C31.4515 69.2695 31.1999 69.0582 31.0531 68.7776C30.9062 68.497 30.876 68.1697 30.969 67.867L33.1823 61.0007C33.2822 60.6977 33.4969 60.4459 33.7803 60.2993C34.0638 60.1527 34.3933 60.123 34.6984 60.2165C35.001 60.3161 35.2517 60.5317 35.3954 60.816C35.5392 61.1002 35.5643 61.4299 35.4652 61.7327L33.3217 68.5292C33.2364 68.7785 33.0738 68.9941 32.8575 69.1445C32.6412 69.295 32.3826 69.3725 32.1192 69.3657Z" fill="#3C3C3C"/>
</svg>
