<svg width="127" height="85" viewBox="0 0 127 85" fill="none" xmlns="http://www.w3.org/2000/svg">
<path d="M38.2239 1.66249C36.6958 1.86124 35.261 2.50855 34.1008 3.52261C32.9406 4.53667 32.1071 5.87194 31.7056 7.35963C31.3042 8.84732 31.3528 10.4206 31.8454 11.8807C32.3379 13.3408 33.2523 14.622 34.4729 15.5625C35.6935 16.503 37.1656 17.0604 38.703 17.1644C40.2404 17.2684 41.7741 16.9143 43.1103 16.1468C44.4464 15.3793 45.525 14.2329 46.2097 12.8524C46.8945 11.472 47.1545 9.91957 46.9571 8.39137C46.8259 7.37593 46.4959 6.39631 45.9859 5.50848C45.4759 4.62066 44.796 3.84204 43.9849 3.21713C43.1739 2.59222 42.2476 2.13327 41.2591 1.86652C40.2706 1.59977 39.2392 1.53044 38.2239 1.66249" stroke="#3C3C3C" stroke-width="2.04525" stroke-miterlimit="10"/>
<path d="M96.6567 5.26213C95.1737 4.84782 93.6012 4.88215 92.1376 5.36082C90.6741 5.83948 89.3852 6.741 88.4337 7.95158C87.4821 9.16216 86.9105 10.6275 86.7911 12.1627C86.6716 13.6978 87.0097 15.234 87.7625 16.5772C88.5154 17.9204 89.6494 19.0104 91.0212 19.7097C92.3931 20.409 93.9414 20.6861 95.4706 20.5062C96.9999 20.3262 98.4415 19.6972 99.6136 18.6986C100.786 17.7 101.636 16.3765 102.056 14.8953C102.333 13.9096 102.413 12.8789 102.292 11.8622C102.171 10.8455 101.85 9.86265 101.349 8.96991C100.847 8.07718 100.175 7.29202 99.3696 6.65932C98.5645 6.02663 97.6427 5.5588 96.6567 5.28259" stroke="#3C3C3C" stroke-width="2.04525" stroke-miterlimit="10"/>
<path d="M123.858 4.32132C123.361 3.99177 122.753 3.87138 122.168 3.98621C121.582 4.10104 121.065 4.44185 120.729 4.9349C117.229 9.73997 112.867 13.8526 107.864 17.0632C105.696 18.5154 103.774 19.6607 102.322 20.4174L100.665 21.2764L100.215 21.5014H100.092C99.1643 21.663 98.2485 21.8885 97.3516 22.1764C95.982 22.6168 94.6542 23.1781 93.3838 23.8535C93.2705 23.8819 93.1607 23.9231 93.0566 23.9762V23.9762C90.8559 24.7405 88.5335 25.0941 86.205 25.0193C81.098 24.9071 76.0589 23.8243 71.3565 21.8287C71.3212 21.6949 71.2732 21.5648 71.2133 21.4401C71.056 21.1114 70.8351 20.8172 70.5635 20.5743C70.2918 20.3314 69.9748 20.1447 69.6307 20.025C69.2866 19.9052 68.9221 19.8547 68.5584 19.8764C68.1947 19.8982 67.8389 19.9917 67.5114 20.1516C63.6441 22.0633 59.3903 23.0638 55.0763 23.0763C52.3014 23.0833 49.542 22.6625 46.8953 21.8287C45.9136 21.5219 45.1569 21.2151 44.666 21.0106L44.1138 20.7447C43.7741 20.5526 43.3978 20.4341 43.0093 20.397H42.8662L29.8584 19.2312H29.6948C26.6758 18.807 23.6991 18.1227 20.7979 17.1859C15.5235 15.5908 10.6449 12.9007 6.48118 9.29128C5.92915 8.86359 5.23644 8.65919 4.54065 8.71869C3.84487 8.77819 3.19692 9.09722 2.72551 9.61242C2.2541 10.1276 1.99373 10.8013 1.99611 11.4996C1.99849 12.1979 2.26346 12.8698 2.73837 13.3818C7.76085 17.7456 13.6821 20.9506 20.0821 22.7695C21.9637 23.3626 23.6817 23.7716 25.1339 24.0989C24.7453 32.2799 26.586 37.4953 29.4902 45.0832V45.2672C31.2957 50.4457 32.1817 55.9001 32.1082 61.3838C32.11 66.9374 31.2475 72.4575 29.5516 77.7458C29.205 78.8415 29.3076 80.03 29.8369 81.0501C30.3661 82.0702 31.2787 82.8385 32.374 83.1862C32.7964 83.325 33.2385 83.3941 33.683 83.3907C34.5943 83.383 35.48 83.0884 36.2143 82.5486C36.9485 82.0089 37.4941 81.2516 37.7735 80.3842C39.7295 74.2616 40.7231 67.8725 40.7187 61.4452C40.7551 57.4937 40.4058 53.5481 39.6756 49.6645C41.5997 51.4618 43.2531 53.5286 44.5842 55.8003C48.5688 62.9814 50.9745 70.9306 51.6403 79.1161C51.7287 80.2136 52.2333 81.2358 53.0508 81.9734C53.8683 82.7111 54.9368 83.1083 56.0376 83.0839H56.508C57.6382 82.9406 58.6667 82.3581 59.3709 81.4625C60.0751 80.567 60.3985 79.4302 60.2713 78.298C58.7782 64.6766 54.79 55.5753 51.0063 49.8486C49.4935 47.4938 47.6935 45.3366 45.6477 43.4265C42.1299 36.2272 42.7026 32.014 44.7683 27.0645C48.0663 28.1631 51.5183 28.7293 54.9945 28.7416V28.7416C59.7133 28.7271 64.3759 27.7166 68.6772 25.776C74.1591 28.2026 80.0682 29.5165 86.0619 29.6415C87.7074 29.6413 89.3499 29.4976 90.9705 29.212C91.1854 37.9434 89.9269 46.6486 87.2481 54.9617L93.3838 55.3912L85.8164 78.6253C85.5316 79.4986 85.6055 80.4492 86.0216 81.2681C86.4378 82.087 87.1622 82.7071 88.0355 82.9919C88.9088 83.2766 89.8595 83.2028 90.6784 82.7867C91.4973 82.3705 92.1173 81.6461 92.4021 80.7728L100.42 55.8003L102.465 55.9434V79.6888C102.532 80.5622 102.926 81.3781 103.569 81.9733C104.212 82.5686 105.055 82.8992 105.931 82.8992C106.807 82.8992 107.651 82.5686 108.294 81.9733C108.937 81.3781 109.331 80.5622 109.398 79.6888V56.4956L115.534 56.9251C114.276 45.3601 111.001 34.1048 105.86 23.6694C107.189 22.9126 108.785 21.9514 110.503 20.7856C116.004 17.2681 120.792 12.7439 124.615 7.45055C124.781 7.20501 124.896 6.92913 124.955 6.63876C125.014 6.34838 125.015 6.04922 124.958 5.75846C124.901 5.4677 124.787 5.19106 124.623 4.94444C124.459 4.69781 124.248 4.48605 124.001 4.32132" stroke="#3C3C3C" stroke-width="2.04525" stroke-miterlimit="10"/>
</svg>
