<svg width="122" height="70" viewBox="0 0 122 70" fill="none" xmlns="http://www.w3.org/2000/svg">
<path d="M39.8772 41.2788C38.5381 40.7873 37.4025 40.3635 36.6906 40.0754C33.8939 38.9736 32.9447 38.3804 32.9447 37.2787V35.0243C34.7993 33.3146 36.2658 31.2272 37.2454 28.9027C38.2249 26.5781 38.6946 24.0706 38.6229 21.5492C38.6229 13.837 33.5379 9.19278 27.3343 9.19278C21.1306 9.19278 16.0288 13.837 16.0288 21.5492C15.9481 24.0843 16.4134 26.6071 17.3931 28.9467C18.3728 31.2862 19.844 33.3878 21.7069 35.1091V37.3634C21.7069 38.4312 20.7747 39.0584 17.978 40.1601C15.1813 41.2619 5.7402 44.3467 4.36727 45.8044C2.21464 47.9062 1.50275 56.8218 1.50275 57.4828C1.4927 57.7747 1.57835 58.0619 1.74665 58.3006C1.91496 58.5393 2.15668 58.7164 2.43499 58.8049C9.57049 60.1564 16.8176 60.8317 24.0799 60.822C24.5545 56.4489 25.7749 49.4147 28.6055 46.635C30.0124 45.262 33.4871 43.7026 39.8772 41.2788ZM118.101 47.4146C116.677 46.0248 107.287 42.7873 104.541 41.7026C101.795 40.6178 100.795 40.0076 100.795 38.8889V37.7532H101.914C105.148 37.408 108.241 36.241 110.897 34.3633C105.812 32.5836 106.405 26.1257 106.405 20.3288C106.405 14.532 101.032 10.7691 95.1845 10.7691C89.3368 10.7691 83.9637 14.515 83.9637 20.3288C83.9637 26.1426 84.4722 32.5836 79.472 34.3633C82.1219 36.241 85.209 37.4082 88.4384 37.7532H89.5571V38.8889C89.5571 39.9567 88.6249 40.5839 85.8282 41.7026L84.7773 42.0924C89.8622 44.0586 92.6589 45.4824 93.8963 46.635C97.1337 49.7876 98.2524 58.4998 98.5914 62.4322C105.803 62.4311 112.998 61.7558 120.084 60.4152C120.36 60.3261 120.6 60.1483 120.765 59.9093C120.931 59.6703 121.013 59.3834 120.999 59.0931C120.999 58.432 120.236 49.5164 118.101 47.4146V47.4146ZM73.5395 41.6517C69.8784 40.211 68.641 39.3804 68.641 37.9736V35.0243C71.0287 32.7573 72.9026 30.0047 74.1365 26.9522C75.3704 23.8997 75.9355 20.6181 75.7939 17.3287C75.7939 7.1588 69.4885 1.12466 61.2678 1.12466C53.0472 1.12466 46.7418 7.20965 46.7418 17.3287C46.5959 20.6156 47.1557 23.8956 48.3837 26.948C49.6116 30.0004 51.4792 32.7543 53.8608 35.0243V37.9736C53.8608 39.3804 52.6234 40.211 48.9453 41.6517C45.2672 43.0924 32.9616 47.3469 31.1649 49.1774C28.3343 51.9233 27.4021 63.6187 27.4021 64.4323C27.386 64.8083 27.4956 65.179 27.7135 65.4859C27.9314 65.7928 28.2452 66.0185 28.6055 66.1273C31.6226 66.9578 44.4706 68.8053 61.3017 68.8053C78.1329 68.8053 90.8962 67.0764 93.8793 66.2459C94.2428 66.1402 94.5604 65.9159 94.7816 65.6087C95.0028 65.3015 95.1148 64.9292 95.0997 64.5509C95.0997 63.6695 94.1505 51.9742 91.3368 49.2961C89.5063 47.3469 77.1837 43.1094 73.5395 41.6517Z" stroke="#3C3C3C" stroke-width="1.69498" stroke-miterlimit="10"/>
</svg>
