<svg width="64" height="92" viewBox="0 0 64 92" fill="none" xmlns="http://www.w3.org/2000/svg">
<path d="M52.6831 65.456L50.8975 65.832L56.0408 90.2602L57.8265 89.8842L52.6831 65.456Z" fill="#3C3C3C"/>
<path d="M12.8983 62.0079L7.0293 89.8824L8.81498 90.2584L14.684 62.3839L12.8983 62.0079Z" fill="#3C3C3C"/>
<path d="M39.6748 38.2808H37.8499V29.2479C37.8526 29.2064 37.8464 29.1649 37.8318 29.1261C37.8171 29.0872 37.7944 29.0519 37.765 29.0226C37.7357 28.9932 37.7004 28.9704 37.6615 28.9558C37.6227 28.9412 37.5811 28.935 37.5397 28.9377H27.3206C27.2792 28.935 27.2376 28.9412 27.1988 28.9558C27.1599 28.9704 27.1247 28.9932 27.0953 29.0226C27.0659 29.0519 27.0432 29.0872 27.0285 29.1261C27.0139 29.1649 27.0077 29.2064 27.0104 29.2479V37.7334H25.1855V29.2479C25.1855 28.6816 25.4105 28.1386 25.8109 27.7382C26.2113 27.3378 26.7544 27.1128 27.3206 27.1128H37.5397C38.106 27.1128 38.649 27.3378 39.0494 27.7382C39.4498 28.1386 39.6748 28.6816 39.6748 29.2479V38.2808Z" fill="#3C3C3C"/>
<path d="M32.43 64.8687C25.8762 64.8611 19.4637 62.9633 13.9613 59.4029C8.45894 55.8426 4.10023 50.7707 1.4078 44.7955L0.860352 43.5546H7.41152V45.3794H3.76184C6.44876 50.6795 10.548 55.134 15.6069 58.2511C20.6659 61.3683 26.4879 63.0269 32.43 63.0439V64.8687Z" fill="#3C3C3C"/>
<path d="M55.3864 55.9452L54.1455 54.5949C56.9986 51.9707 59.3486 48.8477 61.0799 45.3794H56.8645V43.5546H63.9996L63.4157 44.8502C61.5259 49.0586 58.7932 52.8347 55.3864 55.9452Z" fill="#3C3C3C"/>
<path d="M46.5009 33.5426L44.7422 34.0294L46.9179 41.8909L48.6767 41.4041L46.5009 33.5426Z" fill="#3C3C3C"/>
<path d="M52.211 51.4744C52.0228 51.4921 51.8334 51.4921 51.6453 51.4744L34.6743 45.9999C34.3883 45.9117 34.1254 45.7612 33.9046 45.5592C33.6837 45.3573 33.5103 45.1089 33.3969 44.832C33.0072 42.912 33.3248 40.9158 34.2911 39.2115C34.4853 38.812 34.8186 38.497 35.2284 38.3257C35.6383 38.1543 36.0966 38.1384 36.5174 38.2808L50.6599 41.2188L50.2766 43.0436L36.1706 40.1057C36.074 40.089 35.9753 40.089 35.8787 40.1057C35.1987 41.3472 34.9184 42.7683 35.0757 44.175L35.2035 44.3028L52.1562 49.5218C52.3022 49.5218 52.7037 49.5218 53.2511 49.0474C53.8602 48.6083 54.2833 47.9574 54.4373 47.2225C53.9811 41.894 49.6197 29.9048 47.3934 27.0033C46.408 25.7259 40.9517 24.4303 32.4297 24.4303C23.9077 24.4303 18.4515 25.7259 17.4661 27.0033C15.2398 29.9048 10.8601 41.8393 10.4039 47.0765C10.5763 47.6714 10.9506 48.1876 11.4623 48.5364C11.6569 48.7291 11.8877 48.8816 12.1414 48.9849C12.395 49.0882 12.6666 49.1405 12.9405 49.1386L27.8129 44.4853C28.7436 44.2115 29.6377 43.6458 29.729 43.3356C29.8746 42.0589 29.5783 40.7708 28.8895 39.6859C28.4974 39.6144 28.0955 39.6144 27.7034 39.6859L15.4587 42.9159L15.0208 41.0911L27.3749 38.0253C28.0486 37.8814 28.7451 37.8814 29.4187 38.0253C31.3713 38.5363 31.8093 42.5144 31.5903 43.7371C31.2983 45.3977 28.8713 46.1824 28.3968 46.3284L13.4514 50.9634C12.8919 51.0634 12.3168 51.0314 11.7719 50.8698C11.2269 50.7082 10.7273 50.4216 10.3127 50.0328C9.82936 49.6841 9.4251 49.2372 9.12636 48.7215C8.82761 48.2058 8.64113 47.6328 8.5791 47.04C9.09006 41.1823 13.6339 29.1019 16.0244 25.9267C18.415 22.7515 30.1122 22.642 32.448 22.642C34.7838 22.642 46.4627 22.8062 48.8715 25.9267C51.2803 29.0471 55.8059 41.4195 56.2986 47.1495C56.2483 47.8062 56.0597 48.4448 55.7452 49.0235C55.4307 49.6022 54.9974 50.1078 54.4738 50.5072C53.8603 51.0912 53.057 51.4346 52.211 51.4744Z" fill="#3C3C3C"/>
<path d="M18.4821 33.858L16.8164 41.1895L18.5959 41.5938L20.2616 34.2623L18.4821 33.858Z" fill="#3C3C3C"/>
<path d="M36.1158 91.6208C35.5959 91.6267 35.0766 91.5839 34.5647 91.4931C31.572 91.0186 31.5355 89.3033 31.6085 88.7741L33.3238 63.2263C33.3163 62.3018 33.5624 61.3929 34.0355 60.5986L34.3457 60.0511L45.4955 61.876V62.6606C45.4889 63.0541 45.44 63.4456 45.3495 63.8285L41.0064 89.3945C40.6597 90.9639 38.2691 91.6208 36.1158 91.6208ZM35.3494 62.0949C35.2171 62.4645 35.1432 62.8523 35.1304 63.2446L33.4151 88.9566C33.4151 89.2668 34.0538 89.504 34.1815 89.5405C35.8511 90.0277 37.645 89.8444 39.1816 89.0295L43.5247 63.4818L35.3494 62.0949Z" fill="#3C3C3C"/>
<path d="M51.6813 64.814H51.4805L22.9766 60.0329C22.1187 59.9802 21.2952 59.6773 20.6076 59.1616C19.9201 58.6459 19.3987 57.9401 19.1079 57.1314C18.6906 55.8845 18.6178 54.5481 18.8972 53.2632C19.1767 51.9784 19.798 50.7929 20.6955 49.832C21.3608 49.0734 22.2345 48.527 23.2078 48.2609C24.1812 47.9949 25.2113 48.0209 26.17 48.3357L53.9076 55.635C54.3638 55.7263 55.9696 56.3102 55.4952 59.2847C55.1302 61.6752 53.5791 64.814 51.6813 64.814ZM24.5824 49.9963C24.1058 50.0025 23.6358 50.1079 23.2022 50.3058C22.7686 50.5038 22.381 50.7899 22.0641 51.1459C21.4378 51.8645 21.0052 52.731 20.8072 53.6634C20.6092 54.5958 20.6524 55.5634 20.9327 56.4744C21.0932 56.9852 21.4069 57.4343 21.8313 57.7608C22.2556 58.0872 22.7702 58.2752 23.305 58.2993L51.8272 63.0804C53.0467 61.827 53.7447 60.1572 53.7798 58.4088C53.7798 58.2628 53.7798 57.5511 53.4878 57.4964L25.6773 50.197C25.3236 50.0791 24.955 50.0115 24.5824 49.9963Z" fill="#3C3C3C"/>
<path d="M32.4121 21.7478C31.9286 21.7339 31.4468 21.6851 30.9704 21.6018C29.6922 21.3267 28.481 20.8012 27.4068 20.0558C26.3325 19.3104 25.4164 18.3598 24.7112 17.2587C23.5394 14.1313 23.0359 10.7932 23.2331 7.45931C23.6346 3.22569 27.339 0.378942 32.4303 0.378942C37.5216 0.378942 41.226 3.22569 41.5545 7.45931C41.7517 10.7932 41.2482 14.1313 40.0764 17.2587C38.6662 19.4641 36.4435 21.0246 33.8902 21.6018C33.4011 21.6819 32.9074 21.7306 32.4121 21.7478ZM32.4303 2.20378C29.2733 2.20378 25.4412 3.62715 25.131 7.67829C24.966 10.6302 25.4005 13.585 26.4083 16.3645C27.5576 18.1179 29.3444 19.3549 31.3901 19.8135C32.1619 19.9596 32.9542 19.9596 33.7259 19.8135C35.7432 19.3343 37.5001 18.0999 38.6348 16.3645C39.6054 13.5774 40.0027 10.6228 39.8026 7.67829C39.4194 3.62715 35.5325 2.20378 32.4303 2.20378Z" fill="#3C3C3C"/>
</svg>
