<svg width="34" height="29" viewBox="0 0 34 29" fill="none" xmlns="http://www.w3.org/2000/svg">
<path d="M22.5916 1L21.5281 2.14812C19.7432 4.07516 18.7516 6.60502 18.7516 9.23171V12.5317C18.7516 16.4663 21.9412 19.6559 25.8758 19.6559H28.8543C31.1439 19.6559 33 21.512 33 23.8016V23.8016C33 26.0913 31.1439 27.9474 28.8543 27.9474H5.14575C2.85612 27.9474 1 26.0913 1 23.8016V23.8016C1 21.512 2.85612 19.6559 5.14575 19.6559H7.80421C11.5621 19.6559 14.6084 16.6095 14.6084 12.8517V9.23171C14.6084 6.60502 13.6168 4.07516 11.8319 2.14812L10.7684 1" stroke="#252525"/>
<path d="M1 24.5789C17 24.5789 17 22.8947 33 22.8947" stroke="#252525"/>
</svg>
