<svg width="81" height="61" viewBox="0 0 81 61" fill="none" xmlns="http://www.w3.org/2000/svg">
<path d="M41.4013 60.1712C35.5191 60.1712 29.7689 58.4269 24.878 55.1589C19.9871 51.8909 16.1751 47.2459 13.9241 41.8115C11.673 36.377 11.0841 30.397 12.2316 24.6278C13.3792 18.8586 16.2118 13.5592 20.3712 9.39984C24.5305 5.24046 29.8299 2.40789 35.5991 1.26032C41.3683 0.112755 47.3483 0.701729 52.7828 2.95277C58.2173 5.2038 62.8622 9.0158 66.1302 13.9067C69.3982 18.7976 71.1425 24.5478 71.1425 30.43C71.1309 38.3143 67.9938 45.8724 62.4187 51.4474C56.8437 57.0225 49.2856 60.1596 41.4013 60.1712ZM41.4013 2.14462C35.807 2.14462 30.3383 3.80352 25.6868 6.91156C21.0353 10.0196 17.4099 14.4372 15.269 19.6057C13.1282 24.7741 12.568 30.4614 13.6594 35.9482C14.7508 41.4351 17.4447 46.475 21.4005 50.4308C25.3563 54.3866 30.3963 57.0805 35.8831 58.1719C41.3699 59.2633 47.0572 58.7032 52.2257 56.5623C57.3942 54.4215 61.8117 50.796 64.9198 46.1445C68.0278 41.493 69.6867 36.0243 69.6867 30.43C69.6752 22.9318 66.6914 15.744 61.3894 10.442C56.0873 5.13993 48.8995 2.15617 41.4013 2.14462ZM41.0811 49.7479C37.3381 49.7479 33.6791 48.638 30.567 46.5585C27.4548 44.479 25.0291 41.5234 23.5968 38.0653C22.1644 34.6072 21.7896 30.8021 22.5198 27.131C23.25 23.4599 25.0525 20.0879 27.6992 17.4412C30.3458 14.7945 33.7179 12.9921 37.389 12.2618C41.0601 11.5316 44.8652 11.9064 48.3233 13.3388C51.7814 14.7711 54.737 17.1968 56.8165 20.309C58.896 23.4212 60.0059 27.0801 60.0059 30.8231C60.0059 33.3083 59.5164 35.7692 58.5654 38.0653C57.6143 40.3614 56.2203 42.4476 54.463 44.205C52.7056 45.9623 50.6194 47.3563 48.3233 48.3074C46.0272 49.2584 43.5663 49.7479 41.0811 49.7479ZM41.0811 13.354C37.626 13.354 34.2485 14.3785 31.3757 16.298C28.503 18.2176 26.2639 20.9459 24.9417 24.1379C23.6195 27.33 23.2736 30.8424 23.9476 34.2311C24.6217 37.6198 26.2854 40.7325 28.7285 43.1756C31.1716 45.6187 34.2843 47.2825 37.673 47.9565C41.0617 48.6306 44.5741 48.2846 47.7662 46.9624C50.9583 45.6402 53.6866 43.4012 55.6061 40.5284C57.5256 37.6556 58.5502 34.2781 58.5502 30.8231C58.554 28.5265 58.105 26.2518 57.2288 24.129C56.3526 22.0062 55.0664 20.077 53.4439 18.4517C51.8214 16.8265 49.8943 15.5371 47.7729 14.6574C45.6516 13.7777 43.3776 13.3248 41.0811 13.3248V13.354Z" fill="#3C3C3C"/>
<path fill-rule="evenodd" clip-rule="evenodd" d="M9.30234 6.5119H8.0795L8.44344 19.3226H6.98768V6.5119H5.91042V19.3371H4.70214V6.5119H3.52298V19.3371H2.06722L2.50394 6.5119H1.4558L3.86967e-05 17.4155C3.86967e-05 17.4155 3.86967e-05 17.8231 3.86967e-05 17.9833C-0.00301727 18.7786 0.174968 19.5641 0.520509 20.2804C0.866051 20.9967 1.37009 21.625 1.99443 22.1176C5.98321 26.6305 3.26094 31.2452 3.26094 32.3079V52.2227C3.26094 52.771 3.47873 53.2968 3.8664 53.6844C4.25407 54.0721 4.77987 54.2899 5.32812 54.2899C5.87637 54.2899 6.40216 54.0721 6.78983 53.6844C7.1775 53.2968 7.39529 52.771 7.39529 52.2227V32.3807C7.39529 31.0997 5.09519 25.8153 8.9384 21.8702C9.91776 20.9544 10.5112 19.6998 10.598 18.3618V18.0124L9.30234 6.5119Z" fill="#3C3C3C"/>
<path fill-rule="evenodd" clip-rule="evenodd" d="M80.6194 37.3448C80.6194 36.1074 80.6194 6.57007 80.6194 6.57007H79.9498C79.9498 6.57007 74.4033 9.67083 74.4033 32.7155C78.625 33.8801 76.849 38.5385 76.5287 39.0772C76.5287 40.2418 76.6161 52.2809 76.6161 52.2809C76.6161 52.8098 76.8262 53.3171 77.2002 53.6912C77.5742 54.0652 78.0815 54.2753 78.6105 54.2753C79.1394 54.2753 79.6467 54.0652 80.0207 53.6912C80.3947 53.3171 80.6049 52.8098 80.6049 52.2809L80.6194 37.3448Z" fill="#3C3C3C"/>
</svg>
