<svg id="Шар_1" data-name="Шар 1" xmlns="http://www.w3.org/2000/svg" viewBox="0 0 11.47 13.5"><defs><style>.cls-1{fill:#fff;}</style></defs><title>euro</title><rect class="cls-1" y="5.25" width="9" height="1"/><rect class="cls-1" y="7.25" width="7" height="1"/><path class="cls-1" d="M7.63,13.75A6.58,6.58,0,0,1,1.25,7,6.58,6.58,0,0,1,7.63.25a6.11,6.11,0,0,1,3.84,1.36l-.94,1.18a4.58,4.58,0,0,0-2.9-1A5.08,5.08,0,0,0,2.75,7a5.08,5.08,0,0,0,4.88,5.25,4.58,4.58,0,0,0,2.9-1l.94,1.18A6.11,6.11,0,0,1,7.63,13.75Z" transform="translate(0 -0.25)"/></svg>