<svg width="114" height="72" viewBox="0 0 114 72" fill="none" xmlns="http://www.w3.org/2000/svg">
<path d="M65.5686 26.477C62.2641 33.0859 59.5891 43.9609 58.4701 48.8738C58.3944 49.2171 58.3903 49.5723 58.4583 49.9171C58.5262 50.262 58.6646 50.5892 58.8649 50.878C59.0651 51.1669 59.3229 51.4113 59.622 51.596C59.9211 51.7806 60.2551 51.9015 60.6031 51.951C64.3614 52.4936 68.1529 52.774 71.9502 52.7902C75.7414 52.7704 79.5269 52.49 83.2797 51.951C83.6298 51.8999 83.9655 51.7765 84.2654 51.5887C84.5654 51.4009 84.823 51.1528 85.0219 50.8602C85.2208 50.5675 85.3567 50.2367 85.421 49.8888C85.4853 49.5408 85.4765 49.1833 85.3952 48.8389C83.736 41.1912 81.3955 33.7074 78.4017 26.477" stroke="#3C3C3C" stroke-width="1.74838" stroke-miterlimit="10"/>
<path d="M56.1611 35.9883C57.2276 30.4284 60.2524 17.1582 68.8544 17.1582V16.2665C64.4135 16.2665 64.7632 12.4025 64.7632 9.37784C64.6945 8.39672 64.8285 7.41197 65.1568 6.48485C65.4851 5.55774 66.0006 4.70809 66.6714 3.98878C67.3421 3.26946 68.1537 2.69587 69.0556 2.30368C69.9576 1.9115 70.9306 1.70911 71.9141 1.70911C72.8976 1.70911 73.8706 1.9115 74.7725 2.30368C75.6745 2.69587 76.4861 3.26946 77.1568 3.98878C77.8276 4.70809 78.3431 5.55774 78.6714 6.48485C78.9996 7.41197 79.1336 8.39672 79.065 9.37784C79.065 12.4025 79.8168 16.2665 74.9738 16.2665V17.1582C83.4884 17.1582 87.2124 30.7956 88.3139 36.5128" stroke="#3C3C3C" stroke-width="1.74838" stroke-miterlimit="10"/>
<path d="M70.4463 52.7903V70.6587" stroke="#3C3C3C" stroke-width="1.74838" stroke-miterlimit="10"/>
<path d="M64.0819 52.7903C63.9813 57.5162 64.2209 62.2432 64.7987 66.9347C64.9423 67.9682 65.4553 68.9147 66.2427 69.5993C67.0302 70.2839 68.0388 70.6602 69.0823 70.6587H74.7995C75.8469 70.6682 76.8618 70.2951 77.6537 69.6094C78.4456 68.9238 78.96 67.9727 79.1005 66.9347C79.6288 62.2391 79.8624 57.515 79.7999 52.7903" stroke="#3C3C3C" stroke-width="1.74838" stroke-miterlimit="10"/>
<path d="M95.2725 42.4573C94.9052 51.3436 95.4088 60.2445 96.7761 69.0327C96.8622 69.5549 97.1425 70.0252 97.5608 70.3494C97.979 70.6737 98.5044 70.8279 99.0315 70.7811H103.525C104.052 70.8279 104.577 70.6737 104.996 70.3494C105.414 70.0252 105.694 69.5549 105.78 69.0327C106.762 62.3422 106.99 55.5628 106.462 48.8214" stroke="#3C3C3C" stroke-width="1.74838" stroke-miterlimit="10"/>
<path d="M99.8184 56.4094V70.7637" stroke="#3C3C3C" stroke-width="1.74838" stroke-miterlimit="10"/>
<path d="M112.389 54.5561C112.245 52.1229 111.959 49.7002 111.532 47.3003C111.13 44.6253 108.98 42.0552 103.472 41.7055V41.146C104.34 40.6601 105.059 39.9484 105.555 39.0865C106.05 38.2246 106.303 37.2446 106.287 36.2505C106.359 35.552 106.283 34.8463 106.065 34.1788C105.847 33.5114 105.491 32.8973 105.02 32.376C104.55 31.8548 103.975 31.4381 103.334 31.1529C102.692 30.8677 101.998 30.7203 101.295 30.7203C100.593 30.7203 99.8989 30.8677 99.2573 31.1529C98.6157 31.4381 98.041 31.8548 97.5705 32.376C97.1001 32.8973 96.7442 33.5114 96.526 34.1788C96.3078 34.8463 96.2321 35.552 96.3038 36.2505C96.2838 37.2432 96.5334 38.2228 97.026 39.0848C97.5187 39.9469 98.2358 40.6592 99.1012 41.146V41.7055C93.6463 42.0901 91.6356 42.3174 90.1495 41.146C88.6634 39.9746 88.541 36.3904 88.1738 35.2539" stroke="#3C3C3C" stroke-width="1.74838" stroke-miterlimit="10"/>
<path d="M17.5915 58.8571C17.6964 64.6793 17.3991 69.0327 17.3991 69.0327C17.317 69.5535 17.0403 70.0236 16.6249 70.3481C16.2094 70.6727 15.6863 70.8274 15.1612 70.7811H8.95443C8.42728 70.8279 7.90195 70.6737 7.48369 70.3495C7.06543 70.0252 6.78515 69.5549 6.69901 69.0327C6.45772 65.6752 6.42852 62.3058 6.61159 58.9446" stroke="#3C3C3C" stroke-width="1.74838" stroke-miterlimit="10"/>
<path d="M10.3008 58.8571V70.7637" stroke="#3C3C3C" stroke-width="1.74838" stroke-miterlimit="10"/>
<path d="M32.4883 27.2638V66.7074C32.486 67.2246 32.5862 67.7372 32.7831 68.2155C32.9799 68.6939 33.2696 69.1285 33.6354 69.4942C34.0011 69.86 34.4357 70.1496 34.914 70.3465C35.3924 70.5434 35.9049 70.6436 36.4222 70.6412H44.2899C45.3332 70.6412 46.3338 70.2268 47.0716 69.489C47.8093 68.7513 48.2238 67.7507 48.2238 66.7074V27.2638" stroke="#3C3C3C" stroke-width="1.74838" stroke-miterlimit="10"/>
<path d="M39.6748 45.8841V70.379" stroke="#3C3C3C" stroke-width="1.74838" stroke-miterlimit="10"/>
<path d="M1 49.9229C1.61692 48.4735 2.35993 47.0811 3.22045 45.7617C3.87109 44.5928 4.80721 43.6078 5.94147 42.8985C7.07574 42.1892 8.37118 41.7787 9.70696 41.7055V41.146C8.83957 40.66 8.11991 39.9484 7.62431 39.0865C7.12872 38.2246 6.87569 37.2446 6.89206 36.2505C6.83513 34.8649 7.32924 33.5131 8.2663 32.4909C9.20337 31.4686 10.5071 30.8591 11.8924 30.7955C13.2777 30.8591 14.5815 31.4686 15.5186 32.4909C16.4556 33.5131 16.9497 34.8649 16.8928 36.2505C16.9092 37.2446 16.6562 38.2246 16.1606 39.0865C15.665 39.9484 14.9453 40.66 14.0779 41.146V41.7055C19.5329 42.0901 20.7043 41.7054 22.2079 40.5515C23.0054 39.9031 23.6438 39.0806 24.0742 38.1471C24.5045 37.2137 24.7154 36.1941 24.6906 35.1665C24.6906 35.1665 24.6906 32.4565 24.6906 25.4804C24.6906 20.8297 27.6978 17.298 36.5447 16.7385V15.8119C34.2193 14.6055 33.4325 12.1053 33.4325 9.16801C33.3567 7.29081 34.0282 5.46011 35.2998 4.07711C36.5713 2.6941 38.3393 1.87159 40.2163 1.78983H40.4261C41.3585 1.82585 42.2747 2.04535 43.1222 2.43577C43.9697 2.8262 44.7319 3.37989 45.3652 4.06517C45.9985 4.75044 46.4905 5.55386 46.813 6.42946C47.1355 7.30506 47.2822 8.23565 47.2448 9.16801C47.2448 12.1053 46.4755 14.6055 44.2201 15.8119V16.6686C53.0669 17.298 56.0916 20.8297 56.0916 25.4105V36.6701" stroke="#3C3C3C" stroke-width="1.74838" stroke-miterlimit="10"/>
<path d="M8.13383 47.2478C5.90678 50.883 4.14463 54.7832 2.88867 58.8571H20.6697C19.5275 54.746 17.8771 50.7933 15.7568 47.0905" stroke="#3C3C3C" stroke-width="1.74838" stroke-miterlimit="10"/>
</svg>
