<svg width="92" height="52" viewBox="0 0 92 52" fill="none" xmlns="http://www.w3.org/2000/svg">
<path d="M59.6182 44.4715C59.094 45.7433 58.1481 46.7959 56.9394 47.4527C55.9534 48.0685 54.7705 48.2876 53.6293 48.0657C52.4881 47.8439 51.4734 47.1977 50.7898 46.2573L46.4692 38.4658M60.7416 28.3124C60.7416 28.3124 63.0027 32.5466 66.5888 39.5748C66.8519 40.0172 67.0236 40.508 67.0935 41.018C67.1635 41.528 67.1303 42.0469 66.996 42.5439C66.8617 43.0408 66.629 43.5057 66.3116 43.9111C65.9943 44.3164 65.5988 44.6539 65.1486 44.9035C63.2475 46.1133 60.4823 45.9405 59.5318 44.4427L54.1022 34.6061L60.7416 28.3124ZM51.4379 47.5679C51.0059 48.5746 50.2006 49.3748 49.1912 49.8002C47.0021 51.01 43.8336 51.1252 42.4942 49.0225L38.5625 42.0375L51.4379 47.5679Z" stroke="#3C3C3C" stroke-width="1.4402" stroke-miterlimit="10"/>
<path d="M16.7578 41.2023H6.84921C6.1278 41.2043 5.42855 40.9531 4.87327 40.4926C4.31799 40.032 3.94186 39.3913 3.81039 38.6819C2.1456 29.2967 1.30229 19.7842 1.29004 10.2524C1.29193 9.84767 1.37351 9.44727 1.53015 9.07406C1.68678 8.70085 1.91539 8.36215 2.20292 8.0773C2.49045 7.79244 2.83127 7.56701 3.20593 7.41387C3.58058 7.26073 3.98173 7.18289 4.38647 7.18479H16.7578C17.1637 7.18289 17.566 7.26121 17.9416 7.41525C18.3172 7.56928 18.6587 7.796 18.9464 8.08238C19.2341 8.36877 19.4624 8.70917 19.6182 9.08404C19.774 9.45891 19.8542 9.86086 19.8542 10.2668V38.1203C19.8542 38.5262 19.774 38.9282 19.6182 39.303C19.4624 39.6779 19.2341 40.0183 18.9464 40.3047C18.6587 40.5911 18.3172 40.8178 17.9416 40.9718C17.566 41.1259 17.1637 41.2042 16.7578 41.2023V41.2023Z" stroke="#3C3C3C" stroke-width="1.4402" stroke-miterlimit="10"/>
<path d="M42.5226 49.1089C42.0011 49.6463 41.3798 50.0767 40.6936 50.3763C39.1616 51.1215 37.4032 51.2547 35.7764 50.749C34.1496 50.2433 32.7767 49.1367 31.9371 47.6543C28.7399 42.5272 25.6867 36.5072 25.6867 36.5072H20.5596" stroke="#3C3C3C" stroke-width="1.4402" stroke-miterlimit="10"/>
<path d="M75.5322 41.2023H85.4408C86.1523 41.1909 86.8379 40.9337 87.3813 40.4743C87.9247 40.0149 88.2924 39.3816 88.422 38.6819C90.121 29.3004 90.9837 19.7865 91 10.2524C91 9.84835 90.9201 9.44827 90.7651 9.07515C90.61 8.70202 90.3828 8.36321 90.0964 8.07817C89.81 7.79312 89.4701 7.56746 89.0963 7.41415C88.7224 7.26084 88.322 7.18289 87.9179 7.18479H75.5322C74.7148 7.18479 73.9309 7.5095 73.3529 8.08749C72.7749 8.66548 72.4502 9.44941 72.4502 10.2668V38.1203C72.4502 38.9377 72.7749 39.7216 73.3529 40.2996C73.9309 40.8776 74.7148 41.2023 75.5322 41.2023V41.2023Z" stroke="#3C3C3C" stroke-width="1.4402" stroke-miterlimit="10"/>
<path d="M19.8545 10.2668H29.1294L32.6723 8.33696C34.0734 7.57609 35.6433 7.17989 37.2377 7.1848H39.7004" stroke="#3C3C3C" stroke-width="1.4402" stroke-miterlimit="10"/>
<path d="M72.4507 10.2668L60.6699 2.41768C59.2733 1.47894 57.6288 0.977548 55.946 0.977478H50.7757C49.3261 0.980999 47.8955 1.30723 46.5877 1.9325C45.2798 2.55776 44.1276 3.46637 43.2147 4.59238L33.4789 16.4884C33.317 16.6868 33.1969 16.9159 33.1257 17.1619C33.0545 17.4079 33.0338 17.6658 33.0647 17.92C33.0956 18.1742 33.1776 18.4195 33.3057 18.6413C33.4338 18.863 33.6054 19.0566 33.8102 19.2104L34.4295 19.6857C35.5609 20.5293 36.9456 20.9632 38.3562 20.9161C39.7668 20.869 41.1195 20.3437 42.1921 19.4264L48.3274 14.1553C48.6927 13.845 49.1221 13.6193 49.5848 13.4942C50.0476 13.3691 50.5322 13.3478 51.0041 13.4317C51.476 13.5156 51.9236 13.7028 52.3148 13.9797C52.7061 14.2567 53.0313 14.6166 53.2673 15.0338L66.2291 38.077H72.4219" stroke="#3C3C3C" stroke-width="1.4402" stroke-miterlimit="10"/>
</svg>
