<svg width="82" height="78" viewBox="0 0 82 78" fill="none" xmlns="http://www.w3.org/2000/svg">
<path d="M56.73 14.201C49.4953 12.5116 41.1038 15.5414 35.889 25.7691C26.1203 4.19355 -0.376388 14.5498 1.05586 33.72C2.56156 54.0286 30.8393 67.9838 35.889 75.751C41.0855 67.9838 69.5836 53.7164 70.7771 33.72C70.9684 30.5715 70.4017 27.423 69.1245 24.5389L68.8307 23.9696" stroke="#3C3C3C" stroke-width="1.83622" stroke-miterlimit="10"/>
<path d="M37.2295 44.5904L64.0567 17.7449" stroke="#3C3C3C" stroke-width="1.83622" stroke-miterlimit="10"/>
<path d="M6.3623 75.4389L19.7851 62.0161" stroke="#3C3C3C" stroke-width="1.83622" stroke-miterlimit="10"/>
<path d="M65.3972 27.1463H54.6553V16.4044L68.078 3V13.7235H78.8199L65.3972 27.1463Z" stroke="#3C3C3C" stroke-width="1.83622" stroke-miterlimit="10"/>
<path d="M6.3623 75.4389L9.04319 67.3962" stroke="#3C3C3C" stroke-width="1.83622" stroke-miterlimit="10"/>
<path d="M14.4233 72.7579L6.3623 75.4388" stroke="#3C3C3C" stroke-width="1.83622" stroke-miterlimit="10"/>
</svg>
