<svg width="22" height="30" viewBox="0 0 22 30" fill="none" xmlns="http://www.w3.org/2000/svg">
<path d="M21.5 11C21.5 12.393 20.861 14.1951 19.8376 16.1632C18.8225 18.1154 17.4635 20.1677 16.096 22.0423C14.7299 23.9152 13.3627 25.6009 12.3364 26.8189C11.8235 27.4276 11.3962 27.9189 11.0976 28.2577C11.0634 28.2965 11.0308 28.3334 11 28.3681C10.9692 28.3334 10.9366 28.2965 10.9024 28.2577C10.6038 27.9189 10.1765 27.4276 9.66362 26.8189C8.63734 25.6009 7.27009 23.9152 5.90395 22.0423C4.53648 20.1677 3.17745 18.1154 2.16236 16.1632C1.13903 14.1951 0.5 12.393 0.5 11C0.5 5.20101 5.20101 0.5 11 0.5C16.799 0.5 21.5 5.20101 21.5 11Z" stroke="#252525"/>
<circle cx="10.9996" cy="11" r="4.02941" stroke="#252525"/>
</svg>
