<svg width="141" height="74" viewBox="0 0 141 74" fill="none" xmlns="http://www.w3.org/2000/svg">
<path d="M140.86 73.5811H0V71.755H140.86V73.5811ZM120.171 69.1986H118.345V59.1189H74.5203V69.1986H72.6943V59.1189H68.604V57.2929H124.371V59.1189H120.171V69.1986ZM54.6348 69.1986H52.8088V44.9489H54.6348V53.3852C58.0946 53.2768 61.4948 52.4562 64.6232 50.9748L65.4084 52.6365C62.0325 54.2264 58.3649 55.1029 54.6348 55.2112V69.1986ZM24.1401 69.1986H22.3141V50.8105H24.1401V56.7085C28.3951 56.506 32.4699 54.9299 35.7537 52.2165L36.9223 53.6225C33.3057 56.6004 28.8203 58.3241 24.1401 58.5346V69.1986ZM19.1916 58.2424C18.463 58.1112 17.7433 57.9344 17.0369 57.7129C12.1555 56.1821 7.9803 52.9604 5.26166 48.6269C2.54301 44.2934 1.45925 39.1323 2.2052 34.0713C2.95115 29.0102 5.47789 24.3812 9.33121 21.0164C13.1845 17.6515 18.1117 15.7715 23.2271 15.7142C23.994 15.7142 24.761 15.7142 25.5096 15.8237L25.3088 17.6497C22.5788 17.3593 19.8183 17.6431 17.2045 18.483C14.5907 19.3228 12.1815 20.7001 10.1317 22.5264C8.08186 24.3527 6.43671 26.5875 5.30193 29.0874C4.16715 31.5873 3.56784 34.2969 3.5425 37.0422C3.55947 41.2691 4.92787 45.3798 7.44773 48.7736C9.96758 52.1674 13.5068 54.6662 17.5482 55.9051C18.2055 56.0877 18.8629 56.252 19.5385 56.3798L19.1916 58.2424ZM48.6089 54.8277C47.6723 54.6523 46.7458 54.4268 45.8334 54.1521C40.5762 52.5664 35.917 49.4371 32.4604 45.1705C29.0038 40.9038 26.9094 35.6967 26.4491 30.2248C25.9887 24.753 27.1836 19.2692 29.8788 14.485C32.5739 9.70072 36.6448 5.837 41.5631 3.39521C46.4815 0.953415 52.0202 0.0462873 57.4605 0.791549C62.9009 1.53681 67.9916 3.90005 72.0721 7.57458C76.1526 11.2491 79.0344 16.0653 80.3437 21.3981C81.6529 26.7308 81.329 32.334 79.4141 37.4804L77.6976 36.8413C78.7808 33.9581 79.3255 30.9006 79.3045 27.8207C79.3067 23.0791 77.9901 18.4303 75.5019 14.3939C73.0136 10.3576 69.4519 7.0928 65.2147 4.96451C60.9776 2.83621 56.232 1.92828 51.5084 2.3422C46.7849 2.75612 42.2695 4.47559 38.4671 7.3084C34.6647 10.1412 31.725 13.9757 29.9768 18.3833C28.2285 22.7909 27.7405 27.5978 28.5673 32.2668C29.3941 36.9358 31.5032 41.2829 34.6587 44.822C37.8143 48.3612 41.892 50.953 46.436 52.3078C47.3125 52.5634 48.1707 52.7826 49.0107 52.9469L48.6089 54.8277ZM120.171 54.7364H118.345V50.5366H74.5203V54.6634H72.6943V40.6029H74.5203V43.1594H118.345V40.6029H120.171V54.7364ZM74.5203 48.7836H118.345V45.1315H74.5203V48.7836ZM42.7474 44.7663C39.0656 42.4235 36.2469 38.9454 34.7177 34.8581C33.1886 30.7708 33.0322 26.2967 34.2721 22.1126C35.5121 17.9284 38.081 14.262 41.5902 11.6678C45.0994 9.07361 49.358 7.69285 53.7218 7.7344V9.56043C49.781 9.56274 45.9467 10.8399 42.7916 13.2011C39.6364 15.5623 37.3299 18.8808 36.2163 22.6611C35.1028 26.4413 35.2421 30.4803 36.6134 34.1749C37.9847 37.8694 40.5144 41.0212 43.8247 43.1594L42.7474 44.7663ZM111.37 30.1581H106.805V28.332H111.388L111.37 30.1581ZM91.3015 26.999H86.7365V25.173H91.3015V26.999ZM103.372 23.5296H98.7883V21.7035H103.353L103.372 23.5296ZM118.455 20.6992H113.89V18.8732H118.455V20.6992ZM95.4831 16.8645H90.9181V15.0385H95.4831V16.8645ZM108.466 16.8645H103.901V15.0385H108.466V16.8645ZM90.2059 10.6378H85.6408V8.81176H90.2059V10.6378Z" fill="#252525"/>
</svg>
