<svg width="35" height="32" viewBox="0 0 35 32" fill="none" xmlns="http://www.w3.org/2000/svg">
<mask id="mask0" mask-type="alpha" maskUnits="userSpaceOnUse" x="3" y="0" width="33" height="32">
<rect x="3.54395" y="0.5" width="30.9565" height="30.9565" fill="#C4C4C4" stroke="black"/>
</mask>
<g mask="url(#mask0)">
<path d="M6.08695 33.4783L35.7609 14.4565M0 33.4783L38.0434 8.36957M9.13044 35.7609L38.8044 16.7391M12.1739 38.0435L41.8478 19.0217M14.4565 40.3261L44.1304 21.3044M15.9783 43.3696L45.6522 24.3478" stroke="#252525"/>
<path d="M4.56515 28.1522L-12.8879 19.7007M2.28199 29.6739L-17.8808 19.6261M7.60863 25.8696L-12.0524 16.5826M11.1122 23.8182L-10.7564 12.9348M13.4244 21.6102L-9.89137 9.89132M16.7387 19.7826L-8.78497 6.46725" stroke="#252525"/>
<circle cx="27.3914" cy="4.56522" r="4.06522" stroke="#252525"/>
</g>
<rect y="29.3048" width="28.913" height="1.98746" transform="rotate(-32.6746 0 29.3048)" fill="white"/>
</svg>
