<svg width="29" height="28" viewBox="0 0 29 28" fill="none" xmlns="http://www.w3.org/2000/svg">
<path d="M13.2126 7.63287V15.2657C13.2126 18.6381 10.4787 21.372 7.10628 21.372V21.372C3.73388 21.372 1 18.6381 1 15.2657V7.63287M1.76329 15.2657C7.10628 15.2657 7.10628 12.2126 12.4493 12.2126" stroke="#252525"/>
<path d="M2.52637 27.4783H11.6858" stroke="#252525"/>
<path d="M7.10596 27.4782V21.3719" stroke="#252525"/>
<circle cx="19.3188" cy="3.05314" r="2.55314" stroke="#252525"/>
<path d="M27.6 8.4V8.4C27.6 7.07452 26.5255 6 25.2 6H24.8C23.2536 6 22 7.2536 22 8.8V9.6C22 11.1464 23.2536 12.4 24.8 12.4H25.2C26.5255 12.4 27.6 11.3255 27.6 10V10" stroke="#252525"/>
</svg>
