<svg width="58" height="47" viewBox="0 0 58 47" fill="none" xmlns="http://www.w3.org/2000/svg">
<path fill-rule="evenodd" clip-rule="evenodd" d="M26.1575 28.9203V18.5865L34.1983 23.7534L26.1575 28.9203ZM36.6595 22.9126L25.6224 15.9266C25.4686 15.8395 25.2948 15.7937 25.118 15.7937C24.9412 15.7937 24.7674 15.8395 24.6135 15.9266C24.4576 16.0129 24.3274 16.1391 24.2361 16.2921C24.1448 16.4452 24.0957 16.6197 24.0938 16.7979V30.77C24.0957 30.9482 24.1448 31.1227 24.2361 31.2758C24.3274 31.4289 24.4576 31.555 24.6135 31.6414C24.7601 31.7177 24.9222 31.7595 25.0874 31.7637C25.2763 31.7623 25.4613 31.7094 25.6224 31.6108L36.5984 24.6247C36.7405 24.5352 36.8576 24.4112 36.9387 24.2641C37.0199 24.1171 37.0625 23.9519 37.0625 23.784C37.0625 23.616 37.0199 23.4508 36.9387 23.3038C36.8576 23.1568 36.7405 23.0327 36.5984 22.9432L36.6595 22.9126Z" fill="#3C3C3C"/>
<path fill-rule="evenodd" clip-rule="evenodd" d="M55.9973 44.6963H48.0176V35.7229H55.9973V44.6963ZM2.15721 44.6963V35.7229H10.1369V44.6963H2.15721ZM2.15721 2.81041H10.1369V11.7838H2.15721V2.81041ZM55.9973 2.81041V11.7838H48.0176V2.81041H55.9973ZM48.0176 24.747H55.9973V33.7203H48.0176V24.747ZM55.9973 22.7597H48.0176V13.7863H55.9973V22.7597ZM12.1395 34.714V2.81041H46.0303V44.6963H12.1395V34.714ZM2.15721 24.747H10.1369V33.7203H2.15721V24.747ZM10.1369 22.7597H2.15721V13.7863H10.1369V22.7597ZM56.991 0.82312H1.16356C0.900034 0.82312 0.647297 0.927807 0.460953 1.11415C0.274609 1.3005 0.169922 1.55323 0.169922 1.81676L0.169922 45.6899C0.169922 45.9534 0.274609 46.2062 0.460953 46.3925C0.647297 46.5789 0.900034 46.6835 1.16356 46.6835H56.991C57.2559 46.6836 57.5103 46.5794 57.6991 46.3935C57.8878 46.2075 57.9959 45.9548 57.9999 45.6899V1.81676C57.9959 1.55184 57.8878 1.29912 57.6991 1.1132C57.5103 0.927286 57.2559 0.82309 56.991 0.82312Z" fill="#3C3C3C"/>
</svg>
