<svg width="20" height="20" viewBox="0 0 20 20" fill="none" xmlns="http://www.w3.org/2000/svg">
<path d="M10.0975 0L9.47322 1.78367L7.59063 7.16427L1.8905 7.13955L0 7.13065L1.50468 8.27622L6.03947 11.7297L4.25385 17.142L3.66227 18.9375L5.21642 17.8612L9.90158 14.6154L14.4987 17.9859L16.0232 19.1037L15.4791 17.2934L13.8389 11.8336L18.4657 8.50373L20 7.39873L18.1105 7.35718L12.4114 7.22857L10.6742 1.80047L10.0975 0ZM10.044 3.98575L11.343 8.04472L11.4805 8.47502L11.9316 8.48493L16.1923 8.57988L12.7338 11.0699L12.3668 11.333L12.4974 11.7653L13.7231 15.847L10.2864 13.3274L9.92233 13.0603L9.55135 13.3175L6.04837 15.7442L7.38387 11.6971L7.52435 11.2687L7.16525 10.9947L3.77602 8.41375L8.03678 8.43255L8.48788 8.43453L8.63725 8.00815L10.044 3.98575Z" fill="#252525"/>
</svg>
